#!OML:ASF C:\ViconDB\ViconDB\414\Spring2016\041811\Spring2016.ASF
:FULLY-SPECIFIED
:DEGREES
365
root 11.43 17.2368 -15.6806 -174.948 -2.61961 -187.559
lowerback -4.14732 -2.56774 -1.75799
upperback -1.58532 -3.4133 0.78606
thorax 0.843468 -1.72405 1.6219
lowerneck -12.7619 -0.142581 -6.99297
upperneck 28.0043 2.79544 1.92748
head 11.0686 1.44032 2.39795
rclavicle -2.29348e-014 3.49861e-014
rhumerus -82.335 29.6884 -113.293
rradius 90.5617
rwrist 31.6172
rhand -42.1742 0.485559
rfingers 7.12502
rthumb -15.0629 -28.9464
lclavicle -2.29348e-014 3.49861e-014
lhumerus -90.0098 -42.5427 122.992
lradius 76.6155
lwrist -26.4575
lhand -43.035 -1.34681
lfingers 7.12502
lthumb -15.8921 28.0211
rfemur 373.408 -207.571 21.1061
rtibia 34.0813
rfoot -35.2309 -62.5215
rtoes -5.48646e-014
lfemur 9.44884 -6.40466 -35.6904
ltibia 21.9325
lfoot -18.32 -13.0227
ltoes 7.15625e-014
366
root 11.4362 17.2682 -15.9016 -175.08 -3.00343 -186.757
lowerback -3.96722 -2.67982 -1.15252
upperback -1.60427 -3.59266 1.03324
thorax 0.71041 -1.81433 1.53806
lowerneck -12.8212 0.00706377 -6.41912
upperneck 27.9645 2.92687 1.68179
head 11.0678 1.52613 2.22648
rclavicle 4.11484e-014 1.27222e-014
rhumerus -82.3219 29.9868 -113.261
rradius 90.9104
rwrist 31.5342
rhand -41.7002 0.715688
rfingers 7.12502
rthumb -14.6063 -28.75
lclavicle 4.11484e-014 1.27222e-014
lhumerus -89.7141 -41.88 122.882
lradius 76.0546
lwrist -26.8653
lhand -43.6775 -1.01965
lfingers 7.12502
lthumb -16.5107 28.2979
rfemur 372.281 -208.429 22.0773
rtibia 34.5418
rfoot -38.9492 -62.7457
rtoes 1.18476e-013
lfemur 9.66695 -6.58614 -34.7262
ltibia 23.0298
lfoot -17.0603 -13.0808
ltoes -2.3218e-013
367
root 11.4476 17.3057 -16.1234 -175.262 -3.34562 -185.931
lowerback -3.69283 -2.79178 -0.599115
upperback -1.64468 -3.7699 1.2995
thorax 0.505034 -1.90486 1.50993
lowerneck -12.8301 0.177843 -6.14772
upperneck 27.9102 3.0668 1.75407
head 11.0413 1.62332 2.22183
rclavicle 3.2787e-014 2.22639e-014
rhumerus -82.539 30.3258 -113.358
rradius 91.2494
rwrist 31.4458
rhand -41.6183 0.588592
rfingers 7.12502
rthumb -14.5274 -28.8828
lclavicle 3.2787e-014 2.22639e-014
lhumerus -89.4969 -41.2176 122.821
lradius 75.5542
lwrist -27.2426
lhand -44.0409 -0.640612
lfingers 7.12502
lthumb -16.8606 28.6474
rfemur 371.102 -209.266 23.0285
rtibia 34.9499
rfoot -42.5965 -62.7767
rtoes 1.00187e-013
lfemur 9.79668 -6.54732 -33.6372
ltibia 24.1994
lfoot -15.4627 -13.3047
ltoes -2.83069e-013
368
root 11.467 17.3539 -16.3477 -175.418 -3.80204 -185.072
lowerback -3.56705 -2.9081 -0.104836
upperback -1.63755 -3.951 1.60299
thorax 0.436207 -1.99957 1.54431
lowerneck -12.9759 0.292947 -6.00941
upperneck 27.963 3.14829 1.93222
head 11.0821 1.69149 2.27689
rclavicle -1.41137e-014 3.49861e-014
rhumerus -82.7399 30.6252 -113.32
rradius 91.6602
rwrist 31.2624
rhand -41.4836 0.710516
rfingers 7.12502
rthumb -14.3976 -28.7701
lclavicle -1.41137e-014 3.49861e-014
lhumerus -89.4164 -40.6492 123.048
lradius 75.1849
lwrist -26.439
lhand -44.7205 -0.979365
lfingers 7.12502
lthumb -17.5147 28.2516
rfemur 369.949 -210.068 23.8224
rtibia 35.2576
rfoot -44.4396 -62.3841
rtoes 1.74931e-014
lfemur 9.64839 -6.21908 -32.2796
ltibia 25.696
lfoot -13.629 -13.9306
ltoes -1.27222e-014
369
root 11.4742 17.4062 -16.572 -175.67 -4.02109 -184.199
lowerback -3.3035 -2.93099 0.589294
upperback -1.65302 -4.01033 1.81529
thorax 0.243066 -2.03519 1.38922
lowerneck -12.9908 0.473507 -5.62316
upperneck 28.0581 3.31387 1.97805
head 11.1155 1.81564 2.25261
rclavicle 6.82701e-015 -1.59028e-015
rhumerus -82.9356 30.624 -113.343
rradius 92.0504
rwrist 31.2201
rhand -41.4109 0.525044
rfingers 7.12502
rthumb -14.3276 -28.9606
lclavicle 6.82701e-015 -1.59028e-015
lhumerus -89.5523 -40.2914 123.349
lradius 75.0219
lwrist -26.1138
lhand -45.1227 -0.439487
lfingers 7.12502
lthumb -17.9017 28.7566
rfemur 368.55 -210.286 24.1662
rtibia 35.521
rfoot -44.4946 -61.6658
rtoes 1.19271e-013
lfemur 9.40989 -5.84857 -30.9946
ltibia 27.4325
lfoot -11.4244 -14.277
ltoes 6.36111e-015
370
root 11.4924 17.4537 -16.7978 -175.824 -4.26267 -183.364
lowerback -3.26809 -2.94644 1.14742
upperback -1.62949 -4.05736 1.98732
thorax 0.222445 -2.06481 1.25496
lowerneck -13.1652 0.610862 -5.32237
upperneck 28.2603 3.39376 2.22482
head 11.2196 1.91386 2.31193
rclavicle 4.66647e-014 -5.725e-014
rhumerus -83.0103 30.6923 -113.267
rradius 92.3816
rwrist 31.051
rhand -41.1277 0.590232
rfingers 7.12502
rthumb -14.0547 -28.9145
lclavicle 4.66647e-014 -5.725e-014
lhumerus -89.5207 -40.0881 123.456
lradius 74.6813
lwrist -25.9335
lhand -45.4576 -0.474594
lfingers 7.12502
lthumb -18.2239 28.6917
rfemur 367.482 -211.242 25.0284
rtibia 35.7768
rfoot -45.563 -60.9023
rtoes 2.40927e-013
lfemur 8.72606 -5.09002 -29.5421
ltibia 29.5613
lfoot -8.78974 -14.8186
ltoes -2.22639e-014
371
root 11.5081 17.5045 -17.0193 -175.98 -4.50074 -182.517
lowerback -3.20892 -2.98223 1.65453
upperback -1.61054 -4.13125 2.18403
thorax 0.188848 -2.10853 1.17522
lowerneck -13.2113 0.794689 -4.62091
upperneck 28.38 3.5807 1.96085
head 11.2831 2.04389 2.12577
rclavicle -1.93132e-014 -3.65764e-014
rhumerus -83.3702 30.9195 -113.382
rradius 92.8301
rwrist 30.9858
rhand -41.0051 0.24872
rfingers 7.12502
rthumb -13.9365 -29.2642
lclavicle -1.93132e-014 -3.65764e-014
lhumerus -89.4244 -39.954 123.55
lradius 74.4499
lwrist -25.734
lhand -45.7279 -0.377064
lfingers 7.12502
lthumb -18.484 28.7648
rfemur 366.473 -212.369 26.0116
rtibia 36.0128
rfoot -47.0384 -60.192
rtoes 1.74931e-014
lfemur 7.72875 -4.1331 -27.9593
ltibia 32.0476
lfoot -5.89792 -15.3255
ltoes 2.29e-013
372
root 11.5248 17.5472 -17.2336 -176.036 -4.68573 -181.817
lowerback -3.17552 -2.91102 1.96515
upperback -1.60686 -4.05851 2.39564
thorax 0.167343 -2.07868 1.22354
lowerneck -13.3909 0.890423 -4.10289
upperneck 28.6103 3.64059 1.91501
head 11.4141 2.12443 2.04097
rclavicle 1.1455e-014 1.19271e-014
rhumerus -83.4583 30.9549 -113.083
rradius 93.134
rwrist 30.9199
rhand -40.782 0.21963
rfingers 7.12502
rthumb -13.7215 -29.308
lclavicle 1.1455e-014 1.19271e-014
lhumerus -89.319 -40.052 123.883
lradius 74.2227
lwrist -25.5158
lhand -45.8787 -0.0647095
lfingers 7.12502
lthumb -18.629 29.0633
rfemur 365.633 -213.662 27.0097
rtibia 36.3072
rfoot -48.7847 -59.6554
rtoes -5.56597e-015
lfemur 6.2947 -2.94676 -26.4639
ltibia 34.9364
lfoot -2.94301 -15.6913
ltoes 9.54166e-014
373
root 11.5465 17.591 -17.443 -176.056 -4.88854 -180.845
lowerback -3.15316 -2.87824 2.55779
upperback -1.63434 -4.04913 2.59909
thorax 0.100675 -2.08457 1.10606
lowerneck -13.5462 0.971398 -3.91974
upperneck 28.7783 3.60933 2.33091
head 11.5018 2.18269 2.16756
rclavicle 7.72038e-015 -3.10104e-014
rhumerus -83.5717 31.03 -113.075
rradius 93.2697
rwrist 30.9223
rhand -40.5091 0.167343
rfingers 7.12502
rthumb -13.4585 -29.3778
lclavicle 7.72038e-015 -3.10104e-014
lhumerus -89.1774 -40.1468 123.926
lradius 73.9952
lwrist -25.6778
lhand -46.2037 -0.123688
lfingers 7.12502
lthumb -18.9416 28.974
rfemur 364.959 -215.171 28.4572
rtibia 36.5787
rfoot -50.7753 -59.0262
rtoes 9.06458e-014
lfemur 4.54219 -1.7423 -24.6319
ltibia 38.1475
lfoot 0.139341 -15.98
ltoes -6.99722e-014
